<svg width="488" height="1117" viewBox="0 0 488 1117" fill="none" xmlns="http://www.w3.org/2000/svg">
<path d="M164 449C164 472.748 150.569 492 134 492C117.431 492 104 472.748 104 449C104 425.252 117.431 406 134 406C150.569 406 164 425.252 164 449Z" fill="#F1E7FF"/>
<path d="M354 492C370.569 492 384 472.748 384 449C384 425.252 370.569 406 354 406C337.431 406 324 425.252 324 449C324 472.748 337.431 492 354 492Z" fill="#F1E7FF"/>
<path fill-rule="evenodd" clip-rule="evenodd" d="M124.92 384.085C127.672 383.419 130.159 381.827 131.655 379.423C154.967 341.96 196.562 317 244 317C291.438 317 333.033 341.96 356.345 379.423C357.841 381.827 360.328 383.419 363.08 384.085C386.359 389.723 404 416.642 404 449C404 481.357 386.36 508.276 363.081 513.914C360.328 514.581 357.841 516.172 356.345 518.577C333.033 556.04 291.438 581 244 581C196.561 581 154.967 556.04 131.655 518.577C130.159 516.172 127.672 514.581 124.919 513.914C101.64 508.276 84 481.357 84 449C84 416.642 101.641 389.723 124.92 384.085ZM338.895 382.06C340.023 383.652 339.279 385.858 337.507 386.675C317.996 395.67 304 420.177 304 449C304 458.107 305.397 466.783 307.924 474.675C308.133 475.327 307.651 476 306.966 476H299.975C279.506 476 260.391 465.77 249.037 448.739C246.641 445.145 241.359 445.144 238.963 448.739C227.609 465.77 208.494 476 188.025 476H181.034C180.349 476 179.867 475.327 180.076 474.675C182.603 466.783 184 458.107 184 449C184 420.749 170.553 396.644 151.647 387.228C149.318 386.068 148.324 383.125 149.852 381.019C170.967 351.917 205.274 333 244 333C283.186 333 317.847 352.368 338.895 382.06ZM176.106 488C175.016 488 174.017 488.594 173.463 489.532C167.363 499.867 158.983 507.742 149.322 511.843C148.124 512.352 147.63 513.822 148.37 514.891C169.341 545.175 204.354 565 244 565C283.646 565 318.659 545.175 339.63 514.891C340.37 513.822 339.876 512.352 338.678 511.843C329.017 507.742 320.637 499.867 314.537 489.532C313.983 488.594 312.984 488 311.894 488H299.975C279.062 488 259.331 479.072 245.558 463.772C244.729 462.85 243.271 462.85 242.442 463.772C228.669 479.072 208.938 488 188.025 488H176.106ZM159.79 488.423C167.118 478.75 172 464.851 172 449C172 433.148 167.118 419.25 159.79 409.577C152.468 399.912 143.235 395 134 395C124.765 395 115.532 399.912 108.21 409.577C100.882 419.25 96 433.148 96 449C96 464.851 100.882 478.75 108.21 488.423C115.532 498.088 124.765 503 134 503C143.235 503 152.468 498.088 159.79 488.423ZM392 449C392 464.851 387.118 478.75 379.79 488.423C372.468 498.088 363.235 503 354 503C344.765 503 335.532 498.088 328.21 488.423C320.882 478.75 316 464.851 316 449C316 433.148 320.882 419.25 328.21 409.577C335.532 399.912 344.765 395 354 395C363.235 395 372.468 399.912 379.79 409.577C387.118 419.25 392 433.148 392 449Z" fill="#F1E7FF"/>
<path fill-rule="evenodd" clip-rule="evenodd" d="M199.645 145.339C208.072 176.79 211.559 207.366 210.643 234.439C181.007 238.814 153.299 248.929 128.836 263.61C123.183 267.003 121.32 274.387 124.674 280.105C128.028 285.822 135.33 287.706 140.983 284.314C161.233 272.161 184.026 263.488 208.444 259.175L208.355 259.222C219.913 257.106 231.828 256 244.002 256C255.976 256 267.701 257.07 279.082 259.119L278.999 259.075C303.631 263.353 326.622 272.066 347.029 284.314C352.682 287.706 359.984 285.822 363.338 280.105C366.692 274.387 364.829 267.003 359.176 263.61C334.559 248.836 306.658 238.687 276.811 234.358C275.905 207.305 279.393 176.758 287.812 145.339C312.28 54.0251 369.127 -10.0818 414.783 2.15193C460.44 14.3856 477.617 98.3272 453.15 189.641C439.249 241.519 414.897 284.615 388.084 309.92C385.557 312.305 385.386 316.311 387.735 318.87C418.956 352.881 438.002 398.109 438.002 448C438.002 466.627 437.147 485.376 435.647 504.087C432.186 547.266 431.514 588.233 441.459 626.729C445.256 641.428 449.411 656.331 453.625 671.448L453.626 671.452C462.372 702.828 471.375 735.123 477.972 768.413L478.183 769.354C484.056 799.119 488.002 829.895 488.002 862C488.002 926.867 474.145 986.545 449.818 1037.37C437.52 1063.06 415.027 1080.44 390.778 1089.69C296.299 1125.76 191.848 1125.76 97.3693 1089.69C73.1182 1080.44 50.6346 1063.06 38.3267 1037.39C13.9699 986.579 0.00195312 926.898 0.00195312 862C0.00195312 829.895 3.94767 799.119 9.82057 769.354L10.0291 768.425C16.6267 735.129 25.6307 702.829 34.3783 671.448C38.5924 656.331 42.7469 641.428 46.5443 626.729C56.4896 588.233 55.8171 547.266 52.3559 504.087C50.856 485.376 50.0017 466.627 50.0017 448C50.0017 398.24 68.9469 353.118 100.023 319.138C102.369 316.572 102.187 312.562 99.652 310.183C72.7286 284.914 48.2559 241.699 34.307 189.641C9.83965 98.3272 27.017 14.3856 72.6738 2.15193C118.331 -10.0818 175.177 54.0251 199.645 145.339ZM446.614 738.132C448.122 744.249 445.783 750.656 440.74 754.432V754.432L440.691 754.464C440.511 754.584 440.105 754.848 439.462 755.238C438.177 756.017 435.943 757.299 432.68 758.924C426.159 762.173 415.493 766.812 400.03 771.556C369.121 781.039 318.857 791 244.002 791C169.147 791 118.883 781.039 87.9737 771.556C72.5111 766.812 61.8452 762.173 55.3237 758.924C52.0608 757.299 49.8272 756.017 48.5422 755.238C47.8994 754.848 47.493 754.584 47.3129 754.464L47.2643 754.432V754.432C42.2206 750.656 39.8815 744.248 41.3896 738.131C46.2309 718.492 51.6602 698.979 57.1003 679.427L57.1006 679.426L57.1016 679.422C61.4175 663.911 65.7402 648.375 69.7813 632.732C80.7665 590.211 79.7882 545.946 76.2792 502.169C74.8228 484.001 74.0017 465.899 74.0017 448C74.0017 354.889 150.002 280 244.002 280C338.002 280 414.002 354.889 414.002 448C414.002 465.899 413.18 484.001 411.724 502.169C408.215 545.946 407.237 590.211 418.222 632.732C422.263 648.376 426.586 663.913 430.903 679.426C436.343 698.978 441.772 718.492 446.614 738.132Z" fill="#F1E7FF"/>
</svg>
