<svg xmlns="http://www.w3.org/2000/svg" fill="none" viewBox="0 0 512 512">
  <path fill="#424242" fill-rule="evenodd" d="M306.85 73.75a10.37 10.37 0 0 0-14.2 9.63v31.18h-23.96a186.48 186.48 0 0 0-62.62-40.82 10.37 10.37 0 0 0-14.2 9.64v64.79a106.94 106.94 0 0 0-43.97 10.85 91.55 91.55 0 0 0-19.1 13.3 6.11 6.11 0 0 1-8.21-9.03 103.82 103.82 0 0 1 25.96-17.2c.44-.22.9-.37 1.35-.46V117c0-16.52-13.4-29.9-29.93-29.9A29.92 29.92 0 0 0 88.05 117v137.92L33.02 326.4a4.88 4.88 0 0 0 3.87 7.86h121.44a6.1 6.1 0 0 0 4.84-2.39l28.7-37.28v125.1h-83.06a2.44 2.44 0 0 1-2.44-2.44v-70.79a3.05 3.05 0 0 0-3.06-3.05H91.1a3.05 3.05 0 0 0-3.05 3.05v82.08A9.46 9.46 0 0 0 97.5 438h317a9.46 9.46 0 0 0 9.46-9.46v-82.08a3.05 3.05 0 0 0-3.05-3.05H408.7a3.05 3.05 0 0 0-3.06 3.05v73.23H210.2V294.6l28.7 37.28a6.1 6.1 0 0 0 4.85 2.38H475.1a4.88 4.88 0 0 0 3.87-7.85l-55.03-71.48v-9.15c0-37.47-11.35-74.06-32.56-104.96-20.9-30.42-50.35-53.5-84.54-67.06Zm-53.9 107.63a24.42 24.42 0 0 1 48.86 0v30.82a12.21 12.21 0 0 1-24.43 0v-24.4a12.2 12.2 0 0 1 10.8-12.13 12.21 12.21 0 0 0-23.02 5.71v12.2a6.1 6.1 0 0 1-12.21 0v-12.2Zm76.34 0a24.42 24.42 0 0 1 24.43-24.4 24.42 24.42 0 0 1 24.43 24.4v30.82a12.21 12.21 0 0 1-24.43 0v-24.4c0-6.27 4.72-11.43 10.8-12.13a12.21 12.21 0 0 0-23.02 5.71v12.2a6.1 6.1 0 0 1-12.21 0v-12.2ZM95.23 275.61a6.1 6.1 0 0 1 4.85-2.38h82.64c1.01 0 1.59 1.16.97 1.96l-29.54 38.38a6.1 6.1 0 0 1-4.84 2.38H66.66a1.22 1.22 0 0 1-.97-1.97l29.54-38.37Zm124.12-2.38a1.22 1.22 0 0 0-.97 1.96l29.54 38.38a6.1 6.1 0 0 0 4.84 2.38h192.58c1.01 0 1.58-1.16.97-1.97l-29.55-38.37a6.1 6.1 0 0 0-4.84-2.38H219.35Z" clip-rule="evenodd"/>
  <path fill="#F1E7FF" d="M166.22 373.92a6.1 6.1 0 0 0-6.1 6.1 12.21 12.21 0 0 1-24.44 0 6.1 6.1 0 0 0-12.21 0 24.42 24.42 0 0 0 24.43 24.42 24.42 24.42 0 0 0 24.43-24.42 6.1 6.1 0 0 0-6.1-6.1Zm-36.64-27.46a9.16 9.16 0 1 1 0 18.32 9.16 9.16 0 0 1 0-18.32Zm45.8 9.15a9.16 9.16 0 1 0-18.31.01 9.16 9.16 0 0 0 18.31 0Z"/>
</svg>
