<svg xmlns="http://www.w3.org/2000/svg" fill="none" viewBox="0 0 640 363">
  <path fill="#F1E7FF" fill-rule="evenodd" d="M346.18 7.48c0-5.23 5.23-8.9 10.14-6.94a132.19 132.19 0 0 1 60.38 48.32 134.42 134.42 0 0 1 23.27 75.63v6.6l39.3 51.5a3.52 3.52 0 0 1-2.77 5.66H311.24a4.35 4.35 0 0 1-3.46-1.72l-20.5-26.87v90.15h139.6v-52.77c0-1.21.98-2.2 2.18-2.2h8.73c1.2 0 2.18.99 2.18 2.2v59.14a6.79 6.79 0 0 1-6.77 6.82H206.8a6.79 6.79 0 0 1-6.77-6.82v-59.14c0-1.21.98-2.2 2.18-2.2h8.73c1.2 0 2.18.99 2.18 2.2v51c0 .98.78 1.77 1.75 1.77h59.32v-90.15l-20.5 26.87a4.35 4.35 0 0 1-3.46 1.72H163.5a3.52 3.52 0 0 1-2.77-5.67l39.3-51.5V31.7c0-11.9 9.57-21.54 21.38-21.54 11.8 0 21.38 9.64 21.38 21.54v20.63c-.33.07-.66.18-.97.33a74.1 74.1 0 0 0-18.54 12.4 4.42 4.42 0 0 0-.3 6.2 4.34 4.34 0 0 0 6.16.31c.56-.5 1.12-1.01 1.7-1.5a65.38 65.38 0 0 1 11.94-8.1 75.7 75.7 0 0 1 31.41-7.8V7.47A7.42 7.42 0 0 1 284.34.54c16.8 6.72 32 16.7 44.72 29.4h17.12V7.48Zm-10.91 53.03a17.52 17.52 0 0 0-17.45 17.59v8.79c0 2.43 1.95 4.4 4.36 4.4s4.36-1.97 4.36-4.4v-8.8a8.71 8.71 0 0 1 16.44-4.12 8.77 8.77 0 0 0-7.71 8.74v17.6c0 4.85 3.9 8.79 8.72 8.79a8.76 8.76 0 0 0 8.73-8.8V78.1c0-9.72-7.81-17.6-17.45-17.6Zm54.53 0a17.52 17.52 0 0 0-17.45 17.59v8.79c0 2.43 1.95 4.4 4.36 4.4s4.36-1.97 4.36-4.4v-8.8a8.72 8.72 0 0 1 16.44-4.12 8.77 8.77 0 0 0-7.71 8.74v17.6c0 4.85 3.9 8.79 8.72 8.79a8.76 8.76 0 0 0 8.73-8.8V78.1c0-9.72-7.81-17.6-17.45-17.6Zm-181.18 83.76c-1.35 0-2.63.64-3.45 1.72l-21.1 27.65a.88.88 0 0 0 .69 1.42h59.03c1.35 0 2.63-.64 3.46-1.72l21.1-27.65a.88.88 0 0 0-.7-1.42h-59.02Zm84.5 1.42a.88.88 0 0 1 .7-1.42h137.56c1.35 0 2.63.64 3.45 1.72l21.1 27.65a.88.88 0 0 1-.69 1.42H317.7a4.35 4.35 0 0 1-3.46-1.72l-21.1-27.65Z" clip-rule="evenodd"/>
  <path fill="#F1E7FF" d="M251.51 221.23c0-2.43 1.95-4.4 4.36-4.4s4.36 1.97 4.36 4.4c0 9.71-7.8 17.59-17.45 17.59a17.52 17.52 0 0 1-17.44-17.6c0-2.42 1.95-4.4 4.36-4.4a4.38 4.38 0 0 1 4.36 4.4c0 4.86 3.9 8.8 8.72 8.8a8.76 8.76 0 0 0 8.73-8.8Zm-15.27-17.59c0-3.65-2.93-6.6-6.54-6.6a6.57 6.57 0 0 0-6.55 6.6c0 3.64 2.93 6.6 6.55 6.6a6.57 6.57 0 0 0 6.54-6.6Zm19.63-6.6a6.57 6.57 0 0 1 6.55 6.6c0 3.64-2.93 6.6-6.55 6.6a6.57 6.57 0 0 1-6.54-6.6c0-3.65 2.93-6.6 6.54-6.6ZM.06 330.55c-1.1 23.3 12.65 32.35 43.82 32.45 30.37.2 44.91-8.74 44.91-28.23 0-21.46-18.4-23.77-34.4-25.76-2.63-.33-5.2-.66-7.62-1.06l-8.77-1.4c-4.71-.58-4.68-3.13-4.68-3.85v-.07c0-2 2.3-4.12 10.06-4.12 9.16 0 13.05 2.51 13.84 6.73H86.4C87.3 279.03 69.57 273 44.08 273c-28.68 0-42.23 10.75-42.23 27.92 0 21.46 17.39 23.82 32.43 25.87 1.57.21 3.12.42 4.62.65l11.05 1.7c6.5.76 6.34 3.25 6.29 4.07v.03l-.01.05v.08c0 2.1-3.39 4.21-12.35 4.01-10.76-.1-14.44-2.6-14.44-6.83H.06ZM139.39 363c-28.88 0-47.8-17.68-47.8-45 0-27.42 18.92-45 47.8-45 21.81 0 44.12 9.54 46 40.58h-31.06c-1.5-8.24-6.77-12.15-14.94-12.15-8.36 0-15.24 6.12-15.24 16.57 0 10.44 6.88 16.57 15.24 16.57 8.17 0 13.44-4.02 14.94-12.45h31.07c-1.9 31.23-24 40.88-46.01 40.88Z"/>
  <path fill="#F1E7FF" fill-rule="evenodd" d="m249.14 351.04 2.69 9.14h33.76l-29.68-84.37H210.1l-29.68 84.37h33.76l2.8-9.14h32.16Zm-13.35-44.4 6.08 20.2h-17.63l6.08-20.2h5.47Zm362.38 33.96 9.76 19.58H640l-14.14-27.01c6.27-5.03 10.85-12.86 10.85-23.81 0-23.9-13.84-33.55-37.54-33.55h-50.6v84.37h32.77V340.6h16.83Zm5.68-30.94c0 3.92-2.2 6.53-7.17 6.53h-15.34v-13.06h15.34c4.98 0 7.17 2.61 7.17 6.53Z" clip-rule="evenodd"/>
  <path fill="#F1E7FF" d="M362.36 275.81v27.42h-29.28v56.95h-32.66v-56.95h-29.28v-27.42h91.22Zm96.17 27.42v-27.42H367.3v27.42h29.27v56.95h32.67v-56.95h29.28Zm5.44-27.42h78.67v26.22h-45.9v5.62h44.11v20.8h-44.12v5.52h45.91v26.21h-78.67v-84.37Z"/>
</svg>
