<svg xmlns="http://www.w3.org/2000/svg" fill="none" viewBox="0 0 800 131">
  <path fill="#F1E7FF" fill-rule="evenodd" d="M93.09 3.73A3.7 3.7 0 0 1 98.16.27a66.06 66.06 0 0 1 30.2 24.07A66.78 66.78 0 0 1 139.97 62v3.28l19.66 25.65a1.75 1.75 0 0 1-1.39 2.83H75.62c-.68 0-1.31-.32-1.73-.86L63.64 79.53v44.9h69.8V98.15c0-.6.49-1.1 1.09-1.1h4.36c.6 0 1.1.5 1.1 1.1v29.45a3.4 3.4 0 0 1-3.39 3.4H23.4a3.39 3.39 0 0 1-3.38-3.4V98.16c0-.6.48-1.1 1.09-1.1h4.36c.6 0 1.09.5 1.09 1.1v25.4c0 .49.4.88.87.88H57.1v-44.9L46.85 92.9a2.2 2.2 0 0 1-1.73.86H1.75a1.75 1.75 0 0 1-1.38-2.83L20.02 65.3V15.8A10.7 10.7 0 0 1 30.7 5.07c5.9 0 10.7 4.8 10.7 10.73v10.28c-.17.03-.33.08-.5.16a37.06 37.06 0 0 0-9.26 6.17 2.2 2.2 0 0 0-.15 3.1c.8.9 2.19.96 3.08.15a32.74 32.74 0 0 1 6.82-4.78 38.1 38.1 0 0 1 15.7-3.9V3.74A3.7 3.7 0 0 1 62.18.27c8.4 3.35 16 8.31 22.36 14.64h8.56V3.73Zm-5.46 26.4a8.74 8.74 0 0 0-8.72 8.77v4.38a2.19 2.19 0 1 0 4.36 0V38.9a4.37 4.37 0 0 1 8.22-2.05 4.37 4.37 0 0 0-3.86 4.35v8.76a4.37 4.37 0 1 0 8.73 0V38.9c0-4.84-3.9-8.76-8.73-8.76Zm27.27 0a8.74 8.74 0 0 0-8.73 8.77v4.38a2.19 2.19 0 1 0 4.37 0V38.9a4.37 4.37 0 0 1 8.21-2.05 4.37 4.37 0 0 0-3.85 4.35v8.76a4.37 4.37 0 1 0 8.72 0V38.9c0-4.84-3.9-8.76-8.72-8.76ZM24.3 71.87a2.2 2.2 0 0 0-1.73.86L12.03 86.49c-.22.29-.01.7.35.7H41.9c.67 0 1.31-.31 1.72-.85l10.55-13.77a.44.44 0 0 0-.34-.7H24.3Zm42.25.7a.44.44 0 0 1 .35-.7h68.78c.68 0 1.31.32 1.73.86l10.55 13.77c.22.29.01.7-.35.7H78.84a2.2 2.2 0 0 1-1.73-.85L66.56 72.57Z" clip-rule="evenodd"/>
  <path fill="#F1E7FF" d="M45.75 110.2a2.19 2.19 0 1 1 4.37 0c0 4.83-3.9 8.75-8.73 8.75a8.74 8.74 0 0 1-8.72-8.76 2.19 2.19 0 1 1 4.36 0 4.37 4.37 0 1 0 8.72 0Zm-7.63-8.77a3.28 3.28 0 1 0-6.56-.01 3.28 3.28 0 0 0 6.56.01Zm9.82-3.28a3.28 3.28 0 1 1-.02 6.55 3.28 3.28 0 0 1 .02-6.55Zm129.12-14.88c-1.07 22.79 12.31 31.63 42.65 31.73 29.57.2 43.72-8.55 43.72-27.6 0-20.99-17.92-23.24-33.48-25.2-2.57-.32-5.07-.63-7.42-1.02l-8.54-1.38c-4.59-.57-4.56-3.06-4.55-3.76v-.07c0-1.96 2.23-4.02 9.79-4.02 8.92 0 12.7 2.45 13.47 6.58h28.4C261.99 32.89 244.73 27 219.9 27c-27.91 0-41.1 10.5-41.1 27.3 0 20.99 16.93 23.3 31.57 25.3 1.53.2 3.04.4 4.5.63l10.76 1.67c6.32.73 6.16 3.17 6.11 3.97v.15c0 2.07-3.3 4.13-12.03 3.93-10.47-.1-14.05-2.55-14.05-6.68h-28.6ZM312.69 115c-28.12 0-46.54-17.29-46.54-44 0-26.81 18.42-44 46.54-44 21.23 0 42.94 9.33 44.79 39.68h-30.25c-1.46-8.06-6.6-11.89-14.54-11.89-8.15 0-14.83 6-14.83 16.2 0 10.22 6.68 16.21 14.83 16.21 7.95 0 13.08-3.93 14.54-12.17h30.25c-1.85 30.54-23.37 39.97-44.8 39.97Z"/>
  <path fill="#F1E7FF" fill-rule="evenodd" d="m419.52 103.31 2.62 8.94H455l-28.89-82.5h-44.6l-28.88 82.5h32.86l2.72-8.94h31.31Zm-12.99-43.4 5.91 19.73H395.3l5.9-19.74h5.34ZM759.28 93.1l9.5 19.15H800l-13.77-26.42c6.11-4.91 10.57-12.57 10.57-23.28 0-23.37-13.47-32.8-36.55-32.8h-49.24v82.5h31.9V93.1h16.37Zm5.53-30.25c0 3.83-2.13 6.38-6.98 6.38H742.9V56.46h14.93c4.85 0 6.98 2.56 6.98 6.39Z" clip-rule="evenodd"/>
  <path fill="#F1E7FF" d="M529.74 29.75v26.81h-28.5v55.69h-31.8V56.56h-28.5V29.75h88.8Zm93.61 26.81V29.75h-88.8v26.81h28.5v55.69h31.8V56.56h28.5Zm5.29-26.81h76.59v25.63h-44.7v5.5h42.95v20.33h-42.94v5.4h44.69v25.64h-76.59v-82.5Z"/>
</svg>
