<svg width="415" height="640" viewBox="0 0 415 640" fill="none" xmlns="http://www.w3.org/2000/svg">
<g filter="url(#filter0_d_1000_60)">
<path d="M167.937 296.185C173.865 296.185 178.669 289.291 178.669 280.787C178.669 272.283 173.865 265.389 167.937 265.389C162.01 265.389 157.205 272.283 157.205 280.787C157.205 289.291 162.01 296.185 167.937 296.185Z" fill="url(#paint0_radial_1000_60)"/>
<path d="M257.371 280.787C257.371 289.291 252.566 296.185 246.638 296.185C240.711 296.185 235.906 289.291 235.906 280.787C235.906 272.283 240.711 265.389 246.638 265.389C252.566 265.389 257.371 272.283 257.371 280.787Z" fill="url(#paint1_radial_1000_60)"/>
<path fill-rule="evenodd" clip-rule="evenodd" d="M164.689 257.541C165.674 257.302 166.564 256.732 167.099 255.871C175.438 242.456 190.319 233.518 207.289 233.518C224.259 233.518 239.139 242.456 247.479 255.871C248.014 256.732 248.904 257.302 249.888 257.541C258.216 259.56 264.527 269.2 264.527 280.787C264.527 292.374 258.217 302.014 249.889 304.033C248.904 304.272 248.014 304.841 247.479 305.703C239.139 319.118 224.259 328.057 207.289 328.057C190.318 328.057 175.438 319.118 167.099 305.703C166.564 304.841 165.674 304.272 164.689 304.033C156.361 302.014 150.051 292.374 150.051 280.787C150.051 269.2 156.362 259.56 164.689 257.541ZM241.236 256.816C241.64 257.386 241.374 258.176 240.74 258.468C233.76 261.689 228.753 270.465 228.753 280.787C228.753 284.048 229.253 287.155 230.157 289.981C230.232 290.215 230.059 290.456 229.814 290.456H227.313C219.991 290.456 213.153 286.792 209.091 280.694C208.234 279.407 206.344 279.406 205.487 280.694C201.425 286.792 194.587 290.456 187.264 290.456H184.764C184.519 290.456 184.346 290.215 184.421 289.981C185.325 287.155 185.825 284.048 185.825 280.787C185.825 270.67 181.014 262.038 174.251 258.666C173.418 258.251 173.062 257.197 173.609 256.443C181.162 246.021 193.435 239.247 207.289 239.247C221.307 239.247 233.707 246.183 241.236 256.816ZM183.001 294.753C182.611 294.753 182.253 294.966 182.055 295.302C179.873 299.003 176.875 301.823 173.419 303.291C172.99 303.474 172.814 304 173.078 304.383C180.581 315.228 193.106 322.327 207.289 322.327C221.472 322.327 233.997 315.228 241.499 304.383C241.764 304 241.587 303.474 241.159 303.291C237.703 301.823 234.705 299.003 232.523 295.302C232.324 294.966 231.967 294.753 231.577 294.753H227.313C219.832 294.753 212.773 291.556 207.846 286.077C207.55 285.747 207.028 285.747 206.732 286.077C201.804 291.556 194.746 294.753 187.264 294.753H183.001ZM177.164 294.905C179.785 291.441 181.532 286.463 181.532 280.787C181.532 275.11 179.785 270.134 177.164 266.67C174.544 263.209 171.241 261.45 167.938 261.45C164.634 261.45 161.331 263.209 158.712 266.67C156.09 270.134 154.344 275.11 154.344 280.787C154.344 286.463 156.09 291.441 158.712 294.905C161.331 298.366 164.634 300.125 167.938 300.125C171.241 300.125 174.544 298.366 177.164 294.905ZM260.234 280.787C260.234 286.463 258.488 291.441 255.866 294.905C253.247 298.366 249.944 300.125 246.64 300.125C243.336 300.125 240.033 298.366 237.414 294.905C234.793 291.441 233.046 286.463 233.046 280.787C233.046 275.11 234.793 270.134 237.414 266.67C240.033 263.209 243.336 261.45 246.64 261.45C249.944 261.45 253.247 263.209 255.866 266.67C258.488 270.134 260.234 275.11 260.234 280.787Z" fill="url(#paint2_radial_1000_60)"/>
<path fill-rule="evenodd" clip-rule="evenodd" d="M195.354 203.953C195.682 194.258 194.435 183.309 191.42 172.046C182.667 139.346 162.331 116.389 145.997 120.77C129.664 125.151 123.519 155.211 132.272 187.911C137.262 206.553 146.017 222.028 155.649 231.077C156.556 231.929 156.621 233.365 155.781 234.284C144.664 246.452 137.887 262.61 137.887 280.429C137.887 287.1 138.192 293.814 138.729 300.514C139.967 315.977 140.208 330.647 136.65 344.433C135.292 349.695 133.806 355.031 132.299 360.443L132.297 360.449C129.168 371.686 125.947 383.252 123.587 395.174L123.512 395.507C121.412 406.166 120 417.187 120 428.684C120 451.924 124.997 473.296 133.71 491.491C138.113 500.684 146.156 506.908 154.832 510.22C188.631 523.137 225.997 523.137 259.796 510.22C268.47 506.908 276.517 500.684 280.916 491.484C289.619 473.284 294.576 451.913 294.576 428.684C294.576 417.187 293.165 406.166 291.064 395.507L290.988 395.17C288.629 383.252 285.409 371.691 282.281 360.458L282.279 360.448L282.278 360.447L282.269 360.413C280.765 355.011 279.282 349.685 277.926 344.433C274.368 330.647 274.609 315.977 275.847 300.514C276.383 293.814 276.689 287.1 276.689 280.429C276.689 262.563 269.876 246.367 258.707 234.188C257.867 233.271 257.928 231.837 258.832 230.983C268.424 221.921 277.135 206.488 282.108 187.911C290.861 155.211 284.716 125.151 268.383 120.77C252.05 116.389 231.714 139.346 222.961 172.046C219.949 183.297 218.701 194.236 219.025 203.924C229.703 205.474 239.684 209.108 248.49 214.399C250.513 215.614 251.179 218.258 249.979 220.306C248.779 222.353 246.167 223.028 244.145 221.813C236.844 217.427 228.62 214.307 219.808 212.775L219.838 212.791C215.766 212.057 211.572 211.674 207.288 211.674C202.933 211.674 198.671 212.07 194.536 212.828L194.568 212.811C185.832 214.355 177.679 217.461 170.434 221.813C168.412 223.028 165.8 222.353 164.6 220.306C163.4 218.258 164.067 215.614 166.089 214.399C174.84 209.142 184.752 205.52 195.354 203.953ZM277.669 390.163C279.473 388.811 280.31 386.517 279.77 384.326C278.038 377.293 276.096 370.305 274.15 363.304C272.605 357.748 271.059 352.185 269.613 346.582C265.684 331.356 266.033 315.504 267.289 299.827C267.81 293.322 268.104 286.839 268.104 280.429C268.104 247.086 240.916 220.268 207.288 220.268C173.661 220.268 146.473 247.086 146.473 280.429C146.473 286.839 146.766 293.322 147.287 299.827C148.543 315.504 148.893 331.356 144.963 346.582C143.517 352.184 141.971 357.748 140.427 363.302L140.426 363.304L140.426 363.306C138.48 370.307 136.538 377.294 134.806 384.326C134.266 386.517 135.103 388.811 136.908 390.163L136.925 390.175C136.989 390.218 137.135 390.312 137.365 390.452C137.824 390.731 138.623 391.19 139.791 391.772C142.124 392.935 145.939 394.597 151.471 396.296C162.528 399.691 180.51 403.258 207.288 403.258C234.067 403.258 252.048 399.691 263.105 396.296C268.637 394.597 272.453 392.935 274.785 391.772C275.953 391.19 276.752 390.731 277.212 390.452C277.442 390.312 277.587 390.218 277.651 390.175L277.669 390.163Z" fill="url(#paint3_radial_1000_60)"/>
</g>
<defs>
<filter id="filter0_d_1000_60" x="0" y="0.234375" width="414.576" height="639.674" filterUnits="userSpaceOnUse" color-interpolation-filters="sRGB">
<feFlood flood-opacity="0" result="BackgroundImageFix"/>
<feColorMatrix in="SourceAlpha" type="matrix" values="0 0 0 0 0 0 0 0 0 0 0 0 0 0 0 0 0 0 127 0" result="hardAlpha"/>
<feOffset/>
<feGaussianBlur stdDeviation="60"/>
<feComposite in2="hardAlpha" operator="out"/>
<feColorMatrix type="matrix" values="0 0 0 0 0.945098 0 0 0 0 0.905882 0 0 0 0 1 0 0 0 0.25 0"/>
<feBlend mode="normal" in2="BackgroundImageFix" result="effect1_dropShadow_1000_60"/>
<feBlend mode="normal" in="SourceGraphic" in2="effect1_dropShadow_1000_60" result="shape"/>
</filter>
<radialGradient id="paint0_radial_1000_60" cx="0" cy="0" r="1" gradientUnits="userSpaceOnUse" gradientTransform="translate(97.0024 359.921) scale(198 6.00198e+07)">
<stop stop-color="#F1E7FF"/>
<stop offset="0.5" stop-color="#FFF5EC"/>
<stop offset="1" stop-color="#E7FFFB"/>
</radialGradient>
<radialGradient id="paint1_radial_1000_60" cx="0" cy="0" r="1" gradientUnits="userSpaceOnUse" gradientTransform="translate(97.0024 359.921) scale(198 6.00198e+07)">
<stop stop-color="#F1E7FF"/>
<stop offset="0.5" stop-color="#FFF5EC"/>
<stop offset="1" stop-color="#E7FFFB"/>
</radialGradient>
<radialGradient id="paint2_radial_1000_60" cx="0" cy="0" r="1" gradientUnits="userSpaceOnUse" gradientTransform="translate(97.0024 359.921) scale(198 6.00198e+07)">
<stop stop-color="#F1E7FF"/>
<stop offset="0.5" stop-color="#FFF5EC"/>
<stop offset="1" stop-color="#E7FFFB"/>
</radialGradient>
<radialGradient id="paint3_radial_1000_60" cx="0" cy="0" r="1" gradientUnits="userSpaceOnUse" gradientTransform="translate(97.0024 359.921) scale(198 6.00198e+07)">
<stop stop-color="#F1E7FF"/>
<stop offset="0.5" stop-color="#FFF5EC"/>
<stop offset="1" stop-color="#E7FFFB"/>
</radialGradient>
</defs>
</svg>
