<svg width="1440" height="330" viewBox="0 0 1440 330" fill="none" xmlns="http://www.w3.org/2000/svg">
<path d="M48.3944 132.649C48.3944 139.665 44.4311 145.353 39.5419 145.353C34.6527 145.353 30.6895 139.665 30.6895 132.649C30.6895 125.633 34.6527 119.945 39.5419 119.945C44.4311 119.945 48.3944 125.633 48.3944 132.649Z" fill="#F1E7FF"/>
<path d="M104.46 145.353C109.349 145.353 113.312 139.665 113.312 132.649C113.312 125.633 109.349 119.945 104.46 119.945C99.5707 119.945 95.6074 125.633 95.6074 132.649C95.6074 139.665 99.5707 145.353 104.46 145.353Z" fill="#F1E7FF"/>
<path fill-rule="evenodd" clip-rule="evenodd" d="M36.8619 113.472C37.6739 113.275 38.4078 112.804 38.8492 112.094C45.7282 101.026 58.0021 93.6523 72.0002 93.6523C85.9983 93.6523 98.2723 101.026 105.151 112.094C105.593 112.804 106.327 113.275 107.139 113.472C114.008 115.137 119.213 123.09 119.213 132.65C119.213 142.209 114.008 150.162 107.139 151.827C106.327 152.025 105.593 152.495 105.151 153.205C98.2723 164.273 85.9983 171.647 72.0002 171.647C58.0018 171.647 45.7282 164.273 38.8492 153.205C38.4078 152.495 37.6739 152.025 36.8616 151.827C29.9924 150.162 24.7871 142.209 24.7871 132.65C24.7871 123.09 29.9926 115.137 36.8619 113.472ZM100.002 112.873C100.335 113.344 100.115 113.995 99.5924 114.237C93.8351 116.894 89.7051 124.134 89.7051 132.65C89.7051 135.34 90.1174 137.903 90.863 140.235C90.9247 140.428 90.7825 140.626 90.5804 140.626H88.5174C82.4774 140.626 76.8369 137.604 73.4865 132.573C72.7795 131.511 71.2209 131.51 70.5139 132.573C67.1635 137.604 61.523 140.626 55.483 140.626H53.4201C53.218 140.626 53.0757 140.428 53.1374 140.235C53.8831 137.903 54.2953 135.34 54.2953 132.65C54.2953 124.303 50.3273 117.182 44.7485 114.4C44.0613 114.057 43.768 113.188 44.2188 112.566C50.4495 103.968 60.5729 98.3793 72.0002 98.3793C83.5633 98.3793 93.7911 104.101 100.002 112.873ZM51.9659 144.172C51.6443 144.172 51.3495 144.347 51.186 144.624C49.386 147.678 46.9132 150.004 44.0625 151.216C43.7089 151.366 43.5632 151.8 43.7815 152.116C49.9697 161.063 60.3014 166.92 72.0002 166.92C83.699 166.92 94.0307 161.063 100.219 152.116C100.437 151.8 100.291 151.366 99.938 151.216C97.0872 150.004 94.6144 147.678 92.8144 144.624C92.6509 144.347 92.3562 144.172 92.0345 144.172H88.5174C82.3464 144.172 76.5241 141.534 72.46 137.014C72.2153 136.741 71.7851 136.741 71.5405 137.014C67.4763 141.534 61.6541 144.172 55.483 144.172H51.9659ZM47.1514 144.297C49.3137 141.439 50.7543 137.333 50.7543 132.65C50.7543 127.966 49.3137 123.86 47.1514 121.003C44.9908 118.147 42.2663 116.696 39.5412 116.696C36.8161 116.696 34.0916 118.147 31.931 121.003C29.7687 123.86 28.3281 127.966 28.3281 132.65C28.3281 137.333 29.7687 141.439 31.931 144.297C34.0916 147.152 36.8161 148.603 39.5412 148.603C42.2663 148.603 44.9908 147.152 47.1514 144.297ZM115.672 132.65C115.672 137.333 114.232 141.439 112.069 144.297C109.909 147.152 107.184 148.603 104.459 148.603C101.734 148.603 99.0097 147.152 96.8491 144.297C94.6867 141.439 93.2461 137.333 93.2461 132.65C93.2461 127.966 94.6867 123.86 96.8491 121.003C99.0097 118.147 101.734 116.696 104.459 116.696C107.184 116.696 109.909 118.147 112.069 121.003C114.232 123.86 115.672 127.966 115.672 132.65Z" fill="#F1E7FF"/>
<path fill-rule="evenodd" clip-rule="evenodd" d="M58.9111 42.9379C61.3977 52.2296 62.4267 61.2628 62.1564 69.2611C53.4113 70.5536 45.2352 73.5419 38.0166 77.8792C36.3485 78.8816 35.7988 81.0631 36.7885 82.7524C37.7782 84.4414 39.9329 84.998 41.601 83.9959C47.5764 80.4054 54.3022 77.8431 61.5075 76.5689L61.4812 76.5828C64.8918 75.9577 68.4077 75.6309 72 75.6309C75.5333 75.6309 78.9932 75.947 82.3515 76.5524L82.327 76.5394C89.5955 77.8033 96.3797 80.3774 102.401 83.9959C104.07 84.998 106.224 84.4414 107.214 82.7524C108.204 81.0631 107.654 78.8816 105.986 77.8792C98.7218 73.5144 90.4887 70.5161 81.6814 69.2372C81.414 61.2448 82.4433 52.2201 84.9276 42.9379C92.1476 15.9606 108.922 -2.97874 122.394 0.635526C135.867 4.24977 140.936 29.049 133.716 56.0262C129.614 71.3528 122.428 84.0848 114.516 91.5608C113.77 92.2654 113.72 93.4489 114.413 94.2049C123.626 104.253 129.246 117.615 129.246 132.354C129.246 137.857 128.994 143.396 128.551 148.924C127.53 161.681 127.331 173.784 130.266 185.157C131.386 189.5 132.613 193.902 133.856 198.368L133.856 198.37C136.437 207.639 139.094 217.18 141.04 227.015L141.103 227.293C142.836 236.087 144 245.179 144 254.664C144 273.828 139.911 291.459 132.733 306.474C129.104 314.064 122.466 319.199 115.311 321.931C87.4319 332.588 56.6103 332.588 28.7313 321.931C21.5753 319.199 14.9408 314.064 11.3089 306.48C4.12169 291.469 0 273.837 0 254.664C0 245.179 1.16431 236.087 2.8973 227.293L2.95883 227.019C4.90566 217.182 7.56258 207.64 10.1438 198.368C11.3873 193.902 12.6133 189.5 13.7338 185.157C16.6685 173.784 16.47 161.681 15.4487 148.924C15.0061 143.396 14.754 137.857 14.754 132.354C14.754 117.654 20.3444 104.323 29.5144 94.2841C30.2067 93.526 30.153 92.3413 29.4049 91.6385C21.4603 84.1731 14.2389 71.4059 10.1228 56.0262C2.90293 29.049 7.97165 4.24977 21.4442 0.635526C34.9168 -2.97874 51.691 15.9606 58.9111 42.9379ZM131.787 218.069C132.232 219.876 131.542 221.769 130.054 222.885L130.039 222.894C129.986 222.93 129.866 223.008 129.677 223.123C129.298 223.353 128.638 223.732 127.675 224.212C125.751 225.172 122.604 226.542 118.041 227.944C108.92 230.745 94.0884 233.688 72 233.688C49.9117 233.688 35.0797 230.745 25.9589 227.944C21.3961 226.542 18.2488 225.172 16.3245 224.212C15.3616 223.732 14.7025 223.353 14.3234 223.123C14.1337 223.008 14.0138 222.93 13.9606 222.894L13.9463 222.885C12.458 221.769 11.7677 219.876 12.2127 218.069C13.6413 212.267 15.2434 206.502 16.8487 200.726L16.8488 200.725L16.8491 200.724C18.1226 196.142 19.3982 191.552 20.5906 186.93C23.8322 174.368 23.5435 161.291 22.508 148.358C22.0783 142.99 21.836 137.642 21.836 132.354C21.836 104.846 44.2623 82.7214 72 82.7214C99.7377 82.7214 122.164 104.846 122.164 132.354C122.164 137.642 121.921 142.99 121.492 148.358C120.456 161.291 120.168 174.368 123.409 186.93C124.602 191.552 125.877 196.142 127.151 200.725C128.756 206.502 130.358 212.267 131.787 218.069Z" fill="#F1E7FF"/>
<path d="M207.551 177.28H301.079C303.841 177.28 306.079 179.519 306.079 182.28V187.154C306.079 189.314 306.858 191.166 308.414 192.709C309.971 194.149 311.839 194.869 314.018 194.869H318.824C321.585 194.869 323.824 197.107 323.824 199.869V236C323.824 238.761 321.585 241 318.824 241H185C182.239 241 180 238.761 180 236V226.56C180 223.799 182.239 221.56 185 221.56H304.056V204.743C304.056 202.583 303.278 200.731 301.721 199.189C300.165 197.646 298.297 196.874 296.118 196.874H202.745C199.983 196.874 197.745 194.636 197.745 191.874V187.154C197.745 184.994 196.966 183.143 195.41 181.6C193.853 180.057 191.985 179.286 189.806 179.286H185C182.239 179.286 180 177.047 180 174.286V138C180 135.239 182.239 133 185 133H318.824C321.585 133 323.824 135.239 323.824 138V147.749C323.824 150.51 321.585 152.749 318.824 152.749H199.768V169.566C199.768 171.726 200.494 173.577 201.947 175.12C203.504 176.56 205.372 177.28 207.551 177.28Z" fill="#F1E7FF"/>
<path d="M339.454 138C339.454 135.239 341.692 133 344.454 133H478.278C481.039 133 483.278 135.239 483.278 138V175.057C483.278 177.819 481.039 180.057 478.278 180.057H473.627C471.552 180.057 469.736 180.829 468.179 182.371C466.623 183.811 465.844 185.56 465.844 187.617V192.183C465.844 194.944 463.606 197.183 460.844 197.183H366.537C364.358 197.183 362.49 197.954 360.934 199.497C359.481 201.04 358.755 202.84 358.755 204.897V236C358.755 238.761 356.516 241 353.755 241H344.454C341.692 241 339.454 238.761 339.454 236V138ZM363.755 152.131C360.993 152.131 358.755 154.37 358.755 157.131V170.491C358.755 172.549 359.481 174.349 360.934 175.891C362.49 177.331 364.358 178.051 366.537 178.051H456.194C458.373 178.051 460.189 177.331 461.642 175.891C463.198 174.349 463.977 172.549 463.977 170.491V157.131C463.977 154.37 461.738 152.131 458.977 152.131H363.755Z" fill="#F1E7FF"/>
<path d="M503.907 241C501.146 241 498.907 238.761 498.907 236V138C498.907 135.239 501.146 133 503.907 133H513.675C516.437 133 518.675 135.239 518.675 138V216.406C518.675 219.167 520.914 221.406 523.675 221.406H637.731C640.493 221.406 642.731 223.644 642.731 226.406V236C642.731 238.761 640.493 241 637.731 241H503.907Z" fill="#F1E7FF"/>
<path d="M797.185 221.56C799.947 221.56 802.185 223.799 802.185 226.56V236C802.185 238.761 799.947 241 797.185 241H738.211H722.49H663.361C660.6 241 658.361 238.761 658.361 236V226.56C658.361 223.799 660.6 221.56 663.361 221.56H712.529C714.708 221.56 716.576 220.789 718.132 219.246C719.689 217.703 720.467 215.851 720.467 213.691V160.309C720.467 158.149 719.689 156.349 718.132 154.909C716.576 153.366 714.708 152.594 712.529 152.594H663.361C660.6 152.594 658.361 150.356 658.361 147.594V138C658.361 135.239 660.6 133 663.361 133H797.185C799.947 133 802.185 135.239 802.185 138V147.594C802.185 150.356 799.947 152.594 797.185 152.594H748.018C745.838 152.594 743.971 153.366 742.414 154.909C740.961 156.349 740.235 158.149 740.235 160.309V213.691C740.235 215.851 740.961 217.703 742.414 219.246C743.971 220.789 745.838 221.56 748.018 221.56H797.185Z" fill="#F1E7FF"/>
<path d="M846.883 133C849.268 133 851.555 133.947 853.243 135.633L932.855 215.157C936.006 218.304 941.389 216.072 941.389 211.619V138C941.389 135.239 943.627 133 946.389 133H956.639C959.4 133 961.639 135.239 961.639 138V236C961.639 238.761 959.4 241 956.639 241H932.806C930.422 241 928.135 240.054 926.448 238.37L846.442 158.514C843.29 155.369 837.909 157.601 837.909 162.053V236C837.909 238.761 835.671 241 832.909 241H822.815C820.053 241 817.815 238.761 817.815 236V138C817.815 135.239 820.053 133 822.815 133L846.883 133Z" fill="#F1E7FF"/>
<path d="M977.269 138C977.269 135.239 979.507 133 982.269 133H1116.09C1118.85 133 1121.09 135.239 1121.09 138V147.594C1121.09 150.356 1118.85 152.594 1116.09 152.594H1063.99C1061.23 152.594 1058.99 154.833 1058.99 157.594V236C1058.99 238.761 1056.75 241 1053.99 241H1044.22C1041.46 241 1039.22 238.761 1039.22 236V157.594C1039.22 154.833 1036.98 152.594 1034.22 152.594H982.269C979.507 152.594 977.269 150.356 977.269 147.594V138Z" fill="#F1E7FF"/>
<path d="M1136.72 138C1136.72 135.239 1138.96 133 1141.72 133H1275.55C1278.31 133 1280.55 135.239 1280.55 138V147.44C1280.55 150.201 1278.31 152.44 1275.55 152.44H1161.49C1158.73 152.44 1156.49 154.679 1156.49 157.44V169.257C1156.49 171.417 1157.22 173.269 1158.67 174.811C1160.23 176.251 1162.09 176.971 1164.27 176.971H1257.65C1260.41 176.971 1262.65 179.21 1262.65 181.971V191.566C1262.65 194.327 1260.41 196.566 1257.65 196.566H1164.27C1162.09 196.566 1160.23 197.337 1158.67 198.88C1157.22 200.423 1156.49 202.274 1156.49 204.434V221.56H1275.55C1278.31 221.56 1280.55 223.799 1280.55 226.56V236C1280.55 238.761 1278.31 241 1275.55 241H1141.72C1138.96 241 1136.72 238.761 1136.72 236V138Z" fill="#F1E7FF"/>
<path d="M1440 236C1440 238.761 1437.76 241 1435 241H1425.54C1422.78 241 1420.54 238.761 1420.54 236V204.589C1420.54 201.709 1420.02 199.703 1418.99 198.571C1418.05 197.44 1415.98 196.874 1412.76 196.874H1320.94C1318.18 196.874 1315.94 199.113 1315.94 201.874V236C1315.94 238.761 1313.71 241 1310.94 241H1301.18C1298.41 241 1296.18 238.761 1296.18 236V138C1296.18 135.239 1298.41 133 1301.18 133H1435C1437.76 133 1440 135.239 1440 138V174.286C1440 177.047 1437.76 179.286 1435 179.286H1430.35C1428.17 179.286 1426.3 179.954 1424.75 181.291C1423.29 182.629 1422.57 184.377 1422.57 186.537C1422.57 188.697 1423.29 190.651 1424.75 192.4C1426.3 194.046 1428.17 194.869 1430.35 194.869H1435C1437.76 194.869 1440 197.107 1440 199.869V236ZM1420.54 169.411V157.594C1420.54 154.833 1418.3 152.594 1415.54 152.594H1320.94C1318.18 152.594 1315.94 154.833 1315.94 157.594V172.28C1315.94 175.041 1318.18 177.28 1320.94 177.28H1412.76C1415.98 177.28 1418.05 176.611 1418.99 175.274C1420.02 173.834 1420.54 171.88 1420.54 169.411Z" fill="#F1E7FF"/>
</svg>
