<svg width="1680" height="570" viewBox="0 0 1680 570" fill="none" xmlns="http://www.w3.org/2000/svg">
<path d="M168.394 252.649C168.394 259.665 164.431 265.353 159.542 265.353C154.653 265.353 150.689 259.665 150.689 252.649C150.689 245.633 154.653 239.945 159.542 239.945C164.431 239.945 168.394 245.633 168.394 252.649Z" fill="#F1E7FF"/>
<path d="M224.46 265.353C229.349 265.353 233.312 259.665 233.312 252.649C233.312 245.633 229.349 239.945 224.46 239.945C219.571 239.945 215.607 245.633 215.607 252.649C215.607 259.665 219.571 265.353 224.46 265.353Z" fill="#F1E7FF"/>
<path fill-rule="evenodd" clip-rule="evenodd" d="M156.862 233.472C157.674 233.275 158.408 232.804 158.849 232.094C165.728 221.026 178.002 213.652 192 213.652C205.998 213.652 218.272 221.026 225.151 232.094C225.593 232.804 226.327 233.275 227.139 233.472C234.008 235.137 239.213 243.09 239.213 252.65C239.213 262.209 234.008 270.162 227.139 271.827C226.327 272.025 225.593 272.495 225.151 273.205C218.272 284.273 205.998 291.647 192 291.647C178.002 291.647 165.728 284.273 158.849 273.205C158.408 272.495 157.674 272.025 156.862 271.827C149.992 270.162 144.787 262.209 144.787 252.65C144.787 243.09 149.993 235.137 156.862 233.472ZM220.002 232.873C220.335 233.344 220.115 233.995 219.592 234.237C213.835 236.894 209.705 244.134 209.705 252.65C209.705 255.34 210.117 257.903 210.863 260.235C210.925 260.428 210.782 260.626 210.58 260.626H208.517C202.477 260.626 196.837 257.604 193.487 252.573C192.78 251.511 191.221 251.51 190.514 252.573C187.164 257.604 181.523 260.626 175.483 260.626H173.42C173.218 260.626 173.076 260.428 173.137 260.235C173.883 257.903 174.295 255.34 174.295 252.65C174.295 244.303 170.327 237.182 164.749 234.4C164.061 234.057 163.768 233.188 164.219 232.566C170.45 223.968 180.573 218.379 192 218.379C203.563 218.379 213.791 224.101 220.002 232.873ZM171.966 264.172C171.644 264.172 171.349 264.347 171.186 264.624C169.386 267.678 166.913 270.004 164.062 271.216C163.709 271.366 163.563 271.8 163.782 272.116C169.97 281.063 180.301 286.92 192 286.92C203.699 286.92 214.031 281.063 220.219 272.116C220.437 271.8 220.291 271.366 219.938 271.216C217.087 270.004 214.614 267.678 212.814 264.624C212.651 264.347 212.356 264.172 212.035 264.172H208.517C202.346 264.172 196.524 261.534 192.46 257.014C192.215 256.741 191.785 256.741 191.54 257.014C187.476 261.534 181.654 264.172 175.483 264.172H171.966ZM167.151 264.297C169.314 261.439 170.754 257.333 170.754 252.65C170.754 247.966 169.314 243.86 167.151 241.003C164.991 238.147 162.266 236.696 159.541 236.696C156.816 236.696 154.092 238.147 151.931 241.003C149.769 243.86 148.328 247.966 148.328 252.65C148.328 257.333 149.769 261.439 151.931 264.297C154.092 267.152 156.816 268.603 159.541 268.603C162.266 268.603 164.991 267.152 167.151 264.297ZM235.672 252.65C235.672 257.333 234.232 261.439 232.069 264.297C229.909 267.152 227.184 268.603 224.459 268.603C221.734 268.603 219.01 267.152 216.849 264.297C214.687 261.439 213.246 257.333 213.246 252.65C213.246 247.966 214.687 243.86 216.849 241.003C219.01 238.147 221.734 236.696 224.459 236.696C227.184 236.696 229.909 238.147 232.069 241.003C234.232 243.86 235.672 247.966 235.672 252.65Z" fill="#F1E7FF"/>
<g filter="url(#filter0_d_1000_26)">
<path fill-rule="evenodd" clip-rule="evenodd" d="M178.911 162.938C181.398 172.23 182.427 181.263 182.156 189.261C173.411 190.554 165.235 193.542 158.017 197.879C156.349 198.882 155.799 201.063 156.788 202.752C157.778 204.441 159.933 204.998 161.601 203.996C167.576 200.405 174.302 197.843 181.507 196.569L181.481 196.583C184.892 195.958 188.408 195.631 192 195.631C195.533 195.631 198.993 195.947 202.351 196.552L202.327 196.539C209.595 197.803 216.38 200.377 222.401 203.996C224.07 204.998 226.224 204.441 227.214 202.752C228.204 201.063 227.654 198.882 225.986 197.879C218.722 193.514 210.489 190.516 201.681 189.237C201.414 181.245 202.443 172.22 204.928 162.938C212.148 135.961 228.922 117.021 242.394 120.636C255.867 124.25 260.936 149.049 253.716 176.026C249.614 191.353 242.428 204.085 234.516 211.561C233.77 212.265 233.72 213.449 234.413 214.205C243.626 224.253 249.246 237.615 249.246 252.354C249.246 257.857 248.994 263.396 248.551 268.924C247.53 281.681 247.331 293.784 250.266 305.157C251.386 309.5 252.613 313.902 253.856 318.368L253.856 318.37C256.437 327.639 259.094 337.18 261.04 347.015L261.103 347.293C262.836 356.087 264 365.179 264 374.664C264 393.828 259.911 411.459 252.733 426.474C249.104 434.064 242.466 439.199 235.311 441.931C207.432 452.588 176.61 452.588 148.731 441.931C141.575 439.199 134.941 434.064 131.309 426.48C124.122 411.469 120 393.837 120 374.664C120 365.179 121.164 356.087 122.897 347.293L122.959 347.019C124.906 337.182 127.563 327.64 130.144 318.368C131.387 313.902 132.613 309.5 133.734 305.157C136.668 293.784 136.47 281.681 135.449 268.924C135.006 263.396 134.754 257.857 134.754 252.354C134.754 237.654 140.344 224.323 149.514 214.284C150.207 213.526 150.153 212.341 149.405 211.638C141.46 204.173 134.239 191.406 130.123 176.026C122.903 149.049 127.972 124.25 141.444 120.636C154.917 117.021 171.691 135.961 178.911 162.938ZM251.787 338.069C252.232 339.876 251.542 341.769 250.054 342.885L250.039 342.894C249.986 342.93 249.866 343.008 249.677 343.123C249.298 343.353 248.638 343.732 247.675 344.212C245.751 345.172 242.604 346.542 238.041 347.944C228.92 350.745 214.088 353.688 192 353.688C169.912 353.688 155.08 350.745 145.959 347.944C141.396 346.542 138.249 345.172 136.324 344.212C135.362 343.732 134.703 343.353 134.323 343.123C134.134 343.008 134.014 342.93 133.961 342.894L133.946 342.885C132.458 341.769 131.768 339.876 132.213 338.069C133.641 332.267 135.243 326.502 136.849 320.726L136.849 320.725L136.849 320.724C138.123 316.142 139.398 311.552 140.591 306.93C143.832 294.368 143.543 281.291 142.508 268.358C142.078 262.99 141.836 257.642 141.836 252.354C141.836 224.846 164.262 202.721 192 202.721C219.738 202.721 242.164 224.846 242.164 252.354C242.164 257.642 241.921 262.99 241.492 268.358C240.456 281.291 240.168 294.368 243.409 306.93C244.602 311.552 245.877 316.142 247.151 320.725C248.756 326.502 250.358 332.267 251.787 338.069Z" fill="#F1E7FF"/>
<path fill-rule="evenodd" clip-rule="evenodd" d="M178.911 162.938C181.398 172.23 182.427 181.263 182.156 189.261C173.411 190.554 165.235 193.542 158.017 197.879C156.349 198.882 155.799 201.063 156.788 202.752C157.778 204.441 159.933 204.998 161.601 203.996C167.576 200.405 174.302 197.843 181.507 196.569L181.481 196.583C184.892 195.958 188.408 195.631 192 195.631C195.533 195.631 198.993 195.947 202.351 196.552L202.327 196.539C209.595 197.803 216.38 200.377 222.401 203.996C224.07 204.998 226.224 204.441 227.214 202.752C228.204 201.063 227.654 198.882 225.986 197.879C218.722 193.514 210.489 190.516 201.681 189.237C201.414 181.245 202.443 172.22 204.928 162.938C212.148 135.961 228.922 117.021 242.394 120.636C255.867 124.25 260.936 149.049 253.716 176.026C249.614 191.353 242.428 204.085 234.516 211.561C233.77 212.265 233.72 213.449 234.413 214.205C243.626 224.253 249.246 237.615 249.246 252.354C249.246 257.857 248.994 263.396 248.551 268.924C247.53 281.681 247.331 293.784 250.266 305.157C251.386 309.5 252.613 313.902 253.856 318.368L253.856 318.37C256.437 327.639 259.094 337.18 261.04 347.015L261.103 347.293C262.836 356.087 264 365.179 264 374.664C264 393.828 259.911 411.459 252.733 426.474C249.104 434.064 242.466 439.199 235.311 441.931C207.432 452.588 176.61 452.588 148.731 441.931C141.575 439.199 134.941 434.064 131.309 426.48C124.122 411.469 120 393.837 120 374.664C120 365.179 121.164 356.087 122.897 347.293L122.959 347.019C124.906 337.182 127.563 327.64 130.144 318.368C131.387 313.902 132.613 309.5 133.734 305.157C136.668 293.784 136.47 281.681 135.449 268.924C135.006 263.396 134.754 257.857 134.754 252.354C134.754 237.654 140.344 224.323 149.514 214.284C150.207 213.526 150.153 212.341 149.405 211.638C141.46 204.173 134.239 191.406 130.123 176.026C122.903 149.049 127.972 124.25 141.444 120.636C154.917 117.021 171.691 135.961 178.911 162.938ZM251.787 338.069C252.232 339.876 251.542 341.769 250.054 342.885L250.039 342.894C249.986 342.93 249.866 343.008 249.677 343.123C249.298 343.353 248.638 343.732 247.675 344.212C245.751 345.172 242.604 346.542 238.041 347.944C228.92 350.745 214.088 353.688 192 353.688C169.912 353.688 155.08 350.745 145.959 347.944C141.396 346.542 138.249 345.172 136.324 344.212C135.362 343.732 134.703 343.353 134.323 343.123C134.134 343.008 134.014 342.93 133.961 342.894L133.946 342.885C132.458 341.769 131.768 339.876 132.213 338.069C133.641 332.267 135.243 326.502 136.849 320.726L136.849 320.725L136.849 320.724C138.123 316.142 139.398 311.552 140.591 306.93C143.832 294.368 143.543 281.291 142.508 268.358C142.078 262.99 141.836 257.642 141.836 252.354C141.836 224.846 164.262 202.721 192 202.721C219.738 202.721 242.164 224.846 242.164 252.354C242.164 257.642 241.921 262.99 241.492 268.358C240.456 281.291 240.168 294.368 243.409 306.93C244.602 311.552 245.877 316.142 247.151 320.725C248.756 326.502 250.358 332.267 251.787 338.069Z" fill="url(#paint0_radial_1000_26)"/>
</g>
<g filter="url(#filter1_d_1000_26)">
<path d="M327.551 297.28H421.079C423.841 297.28 426.079 299.519 426.079 302.28V307.154C426.079 309.314 426.858 311.166 428.414 312.709C429.971 314.149 431.839 314.869 434.018 314.869H438.824C441.585 314.869 443.824 317.107 443.824 319.869V356C443.824 358.761 441.585 361 438.824 361H305C302.239 361 300 358.761 300 356V346.56C300 343.799 302.239 341.56 305 341.56H424.056V324.743C424.056 322.583 423.278 320.731 421.721 319.189C420.165 317.646 418.297 316.874 416.118 316.874H322.745C319.983 316.874 317.745 314.636 317.745 311.874V307.154C317.745 304.994 316.966 303.143 315.41 301.6C313.853 300.057 311.985 299.286 309.806 299.286H305C302.239 299.286 300 297.047 300 294.286V258C300 255.239 302.239 253 305 253H438.824C441.585 253 443.824 255.239 443.824 258V267.749C443.824 270.51 441.585 272.749 438.824 272.749H319.768V289.566C319.768 291.726 320.494 293.577 321.947 295.12C323.504 296.56 325.372 297.28 327.551 297.28Z" fill="url(#paint1_radial_1000_26)"/>
<path d="M459.454 258C459.454 255.239 461.692 253 464.454 253H598.278C601.039 253 603.278 255.239 603.278 258V295.057C603.278 297.819 601.039 300.057 598.278 300.057H593.627C591.552 300.057 589.736 300.829 588.179 302.371C586.623 303.811 585.844 305.56 585.844 307.617V312.183C585.844 314.944 583.606 317.183 580.844 317.183H486.537C484.358 317.183 482.49 317.954 480.934 319.497C479.481 321.04 478.755 322.84 478.755 324.897V356C478.755 358.761 476.516 361 473.755 361H464.454C461.692 361 459.454 358.761 459.454 356V258ZM483.755 272.131C480.993 272.131 478.755 274.37 478.755 277.131V290.491C478.755 292.549 479.481 294.349 480.934 295.891C482.49 297.331 484.358 298.051 486.537 298.051H576.194C578.373 298.051 580.189 297.331 581.642 295.891C583.198 294.349 583.977 292.549 583.977 290.491V277.131C583.977 274.37 581.738 272.131 578.977 272.131H483.755Z" fill="url(#paint2_radial_1000_26)"/>
<path d="M623.907 361C621.146 361 618.907 358.761 618.907 356V258C618.907 255.239 621.146 253 623.907 253H633.675C636.437 253 638.675 255.239 638.675 258V336.406C638.675 339.167 640.914 341.406 643.675 341.406H757.731C760.493 341.406 762.731 343.644 762.731 346.406V356C762.731 358.761 760.493 361 757.731 361H623.907Z" fill="url(#paint3_radial_1000_26)"/>
<path d="M917.185 341.56C919.947 341.56 922.185 343.799 922.185 346.56V356C922.185 358.761 919.947 361 917.185 361H858.211H842.49H783.361C780.6 361 778.361 358.761 778.361 356V346.56C778.361 343.799 780.6 341.56 783.361 341.56H832.529C834.708 341.56 836.576 340.789 838.132 339.246C839.689 337.703 840.467 335.851 840.467 333.691V280.309C840.467 278.149 839.689 276.349 838.132 274.909C836.576 273.366 834.708 272.594 832.529 272.594H783.361C780.6 272.594 778.361 270.356 778.361 267.594V258C778.361 255.239 780.6 253 783.361 253H917.185C919.947 253 922.185 255.239 922.185 258V267.594C922.185 270.356 919.947 272.594 917.185 272.594H868.018C865.838 272.594 863.971 273.366 862.414 274.909C860.961 276.349 860.235 278.149 860.235 280.309V333.691C860.235 335.851 860.961 337.703 862.414 339.246C863.971 340.789 865.838 341.56 868.018 341.56H917.185Z" fill="url(#paint4_radial_1000_26)"/>
<path d="M966.883 253C969.268 253 971.555 253.947 973.243 255.633L1052.86 335.157C1056.01 338.304 1061.39 336.072 1061.39 331.619V258C1061.39 255.239 1063.63 253 1066.39 253H1076.64C1079.4 253 1081.64 255.239 1081.64 258V356C1081.64 358.761 1079.4 361 1076.64 361H1052.81C1050.42 361 1048.14 360.054 1046.45 358.37L966.442 278.514C963.29 275.369 957.909 277.601 957.909 282.053V356C957.909 358.761 955.671 361 952.909 361H942.815C940.053 361 937.815 358.761 937.815 356V258C937.815 255.239 940.053 253 942.815 253L966.883 253Z" fill="url(#paint5_radial_1000_26)"/>
<path d="M1097.27 258C1097.27 255.239 1099.51 253 1102.27 253H1236.09C1238.85 253 1241.09 255.239 1241.09 258V267.594C1241.09 270.356 1238.85 272.594 1236.09 272.594H1183.99C1181.23 272.594 1178.99 274.833 1178.99 277.594V356C1178.99 358.761 1176.75 361 1173.99 361H1164.22C1161.46 361 1159.22 358.761 1159.22 356V277.594C1159.22 274.833 1156.98 272.594 1154.22 272.594H1102.27C1099.51 272.594 1097.27 270.356 1097.27 267.594V258Z" fill="url(#paint6_radial_1000_26)"/>
<path d="M1256.72 258C1256.72 255.239 1258.96 253 1261.72 253H1395.55C1398.31 253 1400.55 255.239 1400.55 258V267.44C1400.55 270.201 1398.31 272.44 1395.55 272.44H1281.49C1278.73 272.44 1276.49 274.679 1276.49 277.44V289.257C1276.49 291.417 1277.22 293.269 1278.67 294.811C1280.23 296.251 1282.09 296.971 1284.27 296.971H1377.65C1380.41 296.971 1382.65 299.21 1382.65 301.971V311.566C1382.65 314.327 1380.41 316.566 1377.65 316.566H1284.27C1282.09 316.566 1280.23 317.337 1278.67 318.88C1277.22 320.423 1276.49 322.274 1276.49 324.434V341.56H1395.55C1398.31 341.56 1400.55 343.799 1400.55 346.56V356C1400.55 358.761 1398.31 361 1395.55 361H1261.72C1258.96 361 1256.72 358.761 1256.72 356V258Z" fill="url(#paint7_radial_1000_26)"/>
<path d="M1560 356C1560 358.761 1557.76 361 1555 361H1545.54C1542.78 361 1540.54 358.761 1540.54 356V324.589C1540.54 321.709 1540.02 319.703 1538.99 318.571C1538.05 317.44 1535.98 316.874 1532.76 316.874H1440.94C1438.18 316.874 1435.94 319.113 1435.94 321.874V356C1435.94 358.761 1433.71 361 1430.94 361H1421.18C1418.41 361 1416.18 358.761 1416.18 356V258C1416.18 255.239 1418.41 253 1421.18 253H1555C1557.76 253 1560 255.239 1560 258V294.286C1560 297.047 1557.76 299.286 1555 299.286H1550.35C1548.17 299.286 1546.3 299.954 1544.75 301.291C1543.29 302.629 1542.57 304.377 1542.57 306.537C1542.57 308.697 1543.29 310.651 1544.75 312.4C1546.3 314.046 1548.17 314.869 1550.35 314.869H1555C1557.76 314.869 1560 317.107 1560 319.869V356ZM1540.54 289.411V277.594C1540.54 274.833 1538.3 272.594 1535.54 272.594H1440.94C1438.18 272.594 1435.94 274.833 1435.94 277.594V292.28C1435.94 295.041 1438.18 297.28 1440.94 297.28H1532.76C1535.98 297.28 1538.05 296.611 1538.99 295.274C1540.02 293.834 1540.54 291.88 1540.54 289.411Z" fill="url(#paint8_radial_1000_26)"/>
</g>
<defs>
<filter id="filter0_d_1000_26" x="0" y="0.193359" width="384" height="569.73" filterUnits="userSpaceOnUse" color-interpolation-filters="sRGB">
<feFlood flood-opacity="0" result="BackgroundImageFix"/>
<feColorMatrix in="SourceAlpha" type="matrix" values="0 0 0 0 0 0 0 0 0 0 0 0 0 0 0 0 0 0 127 0" result="hardAlpha"/>
<feOffset/>
<feGaussianBlur stdDeviation="60"/>
<feComposite in2="hardAlpha" operator="out"/>
<feColorMatrix type="matrix" values="0 0 0 0 0.945098 0 0 0 0 0.905882 0 0 0 0 1 0 0 0 0.25 0"/>
<feBlend mode="normal" in2="BackgroundImageFix" result="effect1_dropShadow_1000_26"/>
<feBlend mode="normal" in="SourceGraphic" in2="effect1_dropShadow_1000_26" result="shape"/>
</filter>
<filter id="filter1_d_1000_26" x="180" y="133" width="1500" height="348" filterUnits="userSpaceOnUse" color-interpolation-filters="sRGB">
<feFlood flood-opacity="0" result="BackgroundImageFix"/>
<feColorMatrix in="SourceAlpha" type="matrix" values="0 0 0 0 0 0 0 0 0 0 0 0 0 0 0 0 0 0 127 0" result="hardAlpha"/>
<feOffset/>
<feGaussianBlur stdDeviation="60"/>
<feComposite in2="hardAlpha" operator="out"/>
<feColorMatrix type="matrix" values="0 0 0 0 0.945098 0 0 0 0 0.905882 0 0 0 0 1 0 0 0 0.25 0"/>
<feBlend mode="normal" in2="BackgroundImageFix" result="effect1_dropShadow_1000_26"/>
<feBlend mode="normal" in="SourceGraphic" in2="effect1_dropShadow_1000_26" result="shape"/>
</filter>
<radialGradient id="paint0_radial_1000_26" cx="0" cy="0" r="1" gradientUnits="userSpaceOnUse" gradientTransform="translate(120 285.057) rotate(3.03991) scale(1434.9 125110)">
<stop stop-color="#F1E7FF"/>
<stop offset="0.5" stop-color="#FFF5EC"/>
<stop offset="1" stop-color="#E7FFFB"/>
</radialGradient>
<radialGradient id="paint1_radial_1000_26" cx="0" cy="0" r="1" gradientUnits="userSpaceOnUse" gradientTransform="translate(139.501 238.708) rotate(5.08869) scale(1425.57 1.1541e+10)">
<stop stop-color="#F1E7FF"/>
<stop offset="0.5" stop-color="#FFF5EC"/>
<stop offset="1" stop-color="#E7FFFB"/>
</radialGradient>
<radialGradient id="paint2_radial_1000_26" cx="0" cy="0" r="1" gradientUnits="userSpaceOnUse" gradientTransform="translate(139.501 238.708) rotate(5.08869) scale(1425.57 1.1541e+10)">
<stop stop-color="#F1E7FF"/>
<stop offset="0.5" stop-color="#FFF5EC"/>
<stop offset="1" stop-color="#E7FFFB"/>
</radialGradient>
<radialGradient id="paint3_radial_1000_26" cx="0" cy="0" r="1" gradientUnits="userSpaceOnUse" gradientTransform="translate(139.501 238.708) rotate(5.08869) scale(1425.57 1.1541e+10)">
<stop stop-color="#F1E7FF"/>
<stop offset="0.5" stop-color="#FFF5EC"/>
<stop offset="1" stop-color="#E7FFFB"/>
</radialGradient>
<radialGradient id="paint4_radial_1000_26" cx="0" cy="0" r="1" gradientUnits="userSpaceOnUse" gradientTransform="translate(139.501 238.708) rotate(5.08869) scale(1425.57 1.1541e+10)">
<stop stop-color="#F1E7FF"/>
<stop offset="0.5" stop-color="#FFF5EC"/>
<stop offset="1" stop-color="#E7FFFB"/>
</radialGradient>
<radialGradient id="paint5_radial_1000_26" cx="0" cy="0" r="1" gradientUnits="userSpaceOnUse" gradientTransform="translate(139.501 238.708) rotate(5.08869) scale(1425.57 1.1541e+10)">
<stop stop-color="#F1E7FF"/>
<stop offset="0.5" stop-color="#FFF5EC"/>
<stop offset="1" stop-color="#E7FFFB"/>
</radialGradient>
<radialGradient id="paint6_radial_1000_26" cx="0" cy="0" r="1" gradientUnits="userSpaceOnUse" gradientTransform="translate(139.501 238.708) rotate(5.08869) scale(1425.57 1.1541e+10)">
<stop stop-color="#F1E7FF"/>
<stop offset="0.5" stop-color="#FFF5EC"/>
<stop offset="1" stop-color="#E7FFFB"/>
</radialGradient>
<radialGradient id="paint7_radial_1000_26" cx="0" cy="0" r="1" gradientUnits="userSpaceOnUse" gradientTransform="translate(139.501 238.708) rotate(5.08869) scale(1425.57 1.1541e+10)">
<stop stop-color="#F1E7FF"/>
<stop offset="0.5" stop-color="#FFF5EC"/>
<stop offset="1" stop-color="#E7FFFB"/>
</radialGradient>
<radialGradient id="paint8_radial_1000_26" cx="0" cy="0" r="1" gradientUnits="userSpaceOnUse" gradientTransform="translate(139.501 238.708) rotate(5.08869) scale(1425.57 1.1541e+10)">
<stop stop-color="#F1E7FF"/>
<stop offset="0.5" stop-color="#FFF5EC"/>
<stop offset="1" stop-color="#E7FFFB"/>
</radialGradient>
</defs>
</svg>
