<svg width="175" height="400" viewBox="0 0 175 400" fill="none" xmlns="http://www.w3.org/2000/svg">
<path d="M58.6578 160.787C58.6578 169.291 53.8538 176.185 47.9275 176.185C42.0012 176.185 37.1973 169.291 37.1973 160.787C37.1973 152.283 42.0012 145.389 47.9275 145.389C53.8538 145.389 58.6578 152.283 58.6578 160.787Z" fill="#302A38"/>
<path d="M126.617 176.185C132.543 176.185 137.347 169.291 137.347 160.787C137.347 152.283 132.543 145.389 126.617 145.389C120.691 145.389 115.887 152.283 115.887 160.787C115.887 169.291 120.691 176.185 126.617 176.185Z" fill="#302A38"/>
<path fill-rule="evenodd" clip-rule="evenodd" d="M44.681 137.541C45.6653 137.302 46.5548 136.732 47.0899 135.871C55.4281 122.456 70.3055 113.518 87.2729 113.518C104.24 113.518 119.118 122.456 127.456 135.871C127.991 136.732 128.881 137.302 129.865 137.541C138.191 139.56 144.501 149.2 144.501 160.787C144.501 172.374 138.192 182.014 129.865 184.033C128.881 184.272 127.991 184.841 127.456 185.703C119.118 199.118 104.24 208.057 87.2729 208.057C70.3052 208.057 55.4281 199.118 47.0899 185.703C46.5548 184.841 45.6653 184.272 44.6806 184.033C36.3543 182.014 30.0449 172.374 30.0449 160.787C30.0449 149.2 36.3547 139.56 44.681 137.541ZM121.215 136.816C121.618 137.386 121.352 138.176 120.718 138.468C113.739 141.689 108.733 150.465 108.733 160.787C108.733 164.048 109.233 167.155 110.137 169.981C110.212 170.215 110.039 170.456 109.794 170.456H107.294C99.9726 170.456 93.1356 166.792 89.0745 160.694C88.2176 159.407 86.3283 159.406 85.4713 160.694C81.4103 166.792 74.5733 170.456 67.2521 170.456H64.7516C64.5066 170.456 64.3342 170.215 64.4089 169.981C65.3128 167.155 65.8124 164.048 65.8124 160.787C65.8124 150.67 61.0028 142.038 54.2406 138.666C53.4075 138.251 53.052 137.197 53.5985 136.443C61.1509 126.021 73.4216 119.247 87.2729 119.247C101.289 119.247 113.686 126.183 121.215 136.816ZM62.9889 174.753C62.5991 174.753 62.2418 174.966 62.0436 175.302C59.8618 179.003 56.8645 181.823 53.409 183.291C52.9805 183.474 52.8038 184 53.0685 184.383C60.5693 195.228 73.0926 202.327 87.2729 202.327C101.453 202.327 113.977 195.228 121.477 184.383C121.742 184 121.565 183.474 121.137 183.291C117.681 181.823 114.684 179.003 112.502 175.302C112.304 174.966 111.947 174.753 111.557 174.753H107.294C99.8137 174.753 92.7565 171.556 87.8302 166.077C87.5337 165.747 87.0122 165.747 86.7157 166.077C81.7894 171.556 74.7321 174.753 67.2521 174.753H62.9889ZM57.1531 174.905C59.7742 171.441 61.5203 166.463 61.5203 160.787C61.5203 155.11 59.7742 150.134 57.1531 146.67C54.5342 143.209 51.2318 141.45 47.9287 141.45C44.6255 141.45 41.3231 143.209 38.7042 146.67C36.0832 150.134 34.337 155.11 34.337 160.787C34.337 166.463 36.0832 171.441 38.7042 174.905C41.3231 178.366 44.6255 180.125 47.9287 180.125C51.2318 180.125 54.5342 178.366 57.1531 174.905ZM140.209 160.787C140.209 166.463 138.463 171.441 135.842 174.905C133.223 178.366 129.92 180.125 126.617 180.125C123.314 180.125 120.012 178.366 117.393 174.905C114.772 171.441 113.026 166.463 113.026 160.787C113.026 155.11 114.772 150.134 117.393 146.67C120.012 143.209 123.314 141.45 126.617 141.45C129.92 141.45 133.223 143.209 135.842 146.67C138.463 150.134 140.209 155.11 140.209 160.787Z" fill="#302A38"/>
<path fill-rule="evenodd" clip-rule="evenodd" d="M71.4073 52.0459C74.4215 63.3086 75.6687 74.2579 75.3411 83.9528C64.741 85.5195 54.8305 89.1417 46.0807 94.399C44.0588 95.6141 43.3924 98.2583 44.5921 100.306C45.7917 102.353 48.4035 103.028 50.4254 101.813C57.6683 97.4611 65.8208 94.3553 74.5545 92.8108L74.5227 92.8277C78.6567 92.0699 82.9184 91.6739 87.2727 91.6739C91.5555 91.6739 95.7493 92.057 99.82 92.7908L99.7903 92.775C108.601 94.307 116.824 97.4271 124.123 101.813C126.145 103.028 128.757 102.353 129.956 100.306C131.156 98.2583 130.49 95.6141 128.468 94.399C119.663 89.1084 109.683 85.474 99.0077 83.9238C98.6837 74.2361 99.9312 63.2971 102.942 52.0459C111.694 19.3462 132.027 -3.61059 148.357 0.770334C164.687 5.15124 170.831 35.2109 162.08 67.9106C157.108 86.4882 148.398 101.921 138.807 110.983C137.903 111.837 137.842 113.271 138.682 114.188C149.849 126.367 156.662 142.563 156.662 160.429C156.662 167.1 156.356 173.814 155.819 180.514C154.581 195.977 154.341 210.647 157.898 224.433C159.256 229.696 160.742 235.033 162.25 240.447L162.25 240.448C165.378 251.684 168.598 263.249 170.958 275.17L171.033 275.507C173.134 286.166 174.545 297.187 174.545 308.684C174.545 331.913 169.589 353.284 160.888 371.484C156.489 380.684 148.444 386.908 139.771 390.22C105.978 403.137 68.6186 403.137 34.8259 390.22C26.1519 386.908 18.11 380.684 13.7078 371.491C4.99599 353.296 0 331.924 0 308.684C0 297.187 1.41128 286.166 3.51187 275.507L3.58646 275.174C5.94626 263.251 9.16676 251.684 12.2956 240.447C13.8028 235.033 15.2888 229.696 16.647 224.433C20.2042 210.647 19.9637 195.977 18.7257 180.514C18.1892 173.814 17.8837 167.1 17.8837 160.429C17.8837 142.61 24.6599 126.452 35.775 114.284C36.6141 113.365 36.549 111.929 35.6423 111.077C26.0125 102.028 17.2592 86.5527 12.2701 67.9106C3.5187 35.2109 9.66261 5.15124 25.9929 0.770334C42.3234 -3.61059 62.6558 19.3462 71.4073 52.0459ZM159.742 264.326C160.281 266.517 159.445 268.811 157.641 270.163L157.624 270.175C157.559 270.218 157.414 270.312 157.184 270.452C156.724 270.731 155.925 271.19 154.758 271.772C152.426 272.935 148.611 274.597 143.08 276.296C132.025 279.691 114.047 283.258 87.2727 283.258C60.499 283.258 42.5208 279.691 31.4653 276.296C25.9347 274.597 22.1198 272.935 19.7872 271.772C18.6202 271.19 17.8212 270.731 17.3616 270.452C17.1317 270.312 16.9864 270.218 16.9219 270.175L16.9046 270.163C15.1006 268.811 14.2639 266.516 14.8033 264.326C16.5349 257.293 18.4769 250.306 20.4227 243.304L20.4228 243.304L20.4231 243.302C21.9668 237.748 23.5129 232.184 24.9583 226.582C28.8875 211.356 28.5376 195.504 27.2825 179.828C26.7616 173.322 26.4679 166.839 26.4679 160.429C26.4679 127.086 53.6513 100.268 87.2727 100.268C120.894 100.268 148.078 127.086 148.078 160.429C148.078 166.839 147.784 173.322 147.263 179.828C146.008 195.504 145.658 211.356 149.587 226.582C151.032 232.185 152.578 237.748 154.123 243.304C156.068 250.305 158.01 257.293 159.742 264.326Z" fill="#302A38"/>
</svg>
