<svg width="473" height="1080" viewBox="0 0 473 1080" fill="none" xmlns="http://www.w3.org/2000/svg">
<path d="M129.666 475.459C145.699 475.459 158.696 456.829 158.696 433.849C158.696 410.868 145.699 392.239 129.666 392.239C113.633 392.239 100.636 410.868 100.636 433.849C100.636 456.829 113.633 475.459 129.666 475.459Z" fill="#F1E7FF"/>
<path d="M371.583 433.849C371.583 456.829 358.586 475.459 342.553 475.459C326.52 475.459 313.523 456.829 313.523 433.849C313.523 410.868 326.52 392.239 342.553 392.239C358.586 392.239 371.583 410.868 371.583 433.849Z" fill="#F1E7FF"/>
<path fill-rule="evenodd" clip-rule="evenodd" d="M120.879 371.033C123.542 370.388 125.949 368.848 127.397 366.521C149.955 330.269 190.205 306.117 236.109 306.117C282.014 306.117 322.263 330.269 344.822 366.521C346.27 368.848 348.676 370.388 351.34 371.033C373.866 376.488 390.936 402.537 390.936 433.849C390.936 465.16 373.866 491.209 351.34 496.664C348.677 497.309 346.27 498.849 344.822 501.176C322.264 537.428 282.014 561.581 236.109 561.581C190.204 561.581 149.955 537.428 127.396 501.176C125.948 498.849 123.542 497.309 120.879 496.664C98.3524 491.209 81.2823 465.16 81.2823 433.849C81.2823 402.537 98.3525 376.488 120.879 371.033ZM327.936 369.073C329.028 370.614 328.308 372.748 326.593 373.539C307.713 382.243 294.169 405.958 294.169 433.849C294.169 442.661 295.521 451.057 297.967 458.694C298.169 459.325 297.702 459.976 297.039 459.976H290.275C270.467 459.976 251.97 450.077 240.983 433.596C238.665 430.119 233.554 430.118 231.235 433.596C220.248 450.077 201.751 459.976 181.944 459.976H175.179C174.516 459.976 174.049 459.325 174.252 458.694C176.697 451.057 178.049 442.661 178.049 433.849C178.049 406.511 165.037 383.185 146.742 374.074C144.488 372.952 143.526 370.104 145.005 368.066C165.437 339.905 198.635 321.599 236.109 321.599C274.028 321.599 307.569 340.342 327.936 369.073ZM170.41 471.588C169.356 471.588 168.389 472.163 167.853 473.071C161.95 483.071 153.841 490.692 144.492 494.66C143.333 495.152 142.855 496.575 143.571 497.61C163.864 526.914 197.745 546.099 236.109 546.099C274.473 546.099 308.355 526.914 328.647 497.61C329.364 496.575 328.885 495.152 327.726 494.66C318.377 490.692 310.269 483.071 304.365 473.071C303.83 472.163 302.862 471.588 301.808 471.588H290.275C270.038 471.588 250.945 462.949 237.617 448.143C236.815 447.251 235.404 447.251 234.601 448.143C221.274 462.949 202.18 471.588 181.944 471.588H170.41ZM154.622 471.997C161.713 462.637 166.437 449.188 166.437 433.849C166.437 418.51 161.713 405.061 154.622 395.701C147.537 386.348 138.602 381.595 129.666 381.595C120.729 381.595 111.795 386.348 104.709 395.701C97.6183 405.061 92.8943 418.51 92.8943 433.849C92.8943 449.188 97.6183 462.637 104.709 471.997C111.795 481.35 120.729 486.103 129.666 486.103C138.602 486.103 147.537 481.35 154.622 471.997ZM379.324 433.849C379.324 449.188 374.6 462.637 367.509 471.997C360.424 481.35 351.489 486.103 342.553 486.103C333.616 486.103 324.682 481.35 317.596 471.997C310.505 462.637 305.781 449.188 305.781 433.849C305.781 418.51 310.505 405.061 317.596 395.701C324.682 386.348 333.616 381.595 342.553 381.595C351.489 381.595 360.424 386.348 367.509 395.701C374.6 405.061 379.324 418.51 379.324 433.849Z" fill="#F1E7FF"/>
<path fill-rule="evenodd" clip-rule="evenodd" d="M203.831 226.225C204.717 200.028 201.343 170.44 193.188 140.006C169.512 51.6443 114.503 -10.3899 70.3223 1.44827C26.1416 13.2864 9.51963 94.5141 33.1959 182.875C46.6938 233.25 70.3753 275.068 96.4282 299.52C98.8817 301.823 99.0576 305.703 96.7868 308.186C66.7159 341.067 48.3831 384.73 48.3831 432.882C48.3831 450.906 49.2098 469.049 50.6612 487.155C54.0105 528.938 54.6613 568.581 45.0375 605.832C41.3629 620.055 37.3427 634.477 33.265 649.105C24.8001 679.471 16.0873 710.727 9.70297 742.947L9.50116 743.846C3.81814 772.648 0 802.429 0 833.496C0 896.295 13.5164 954.047 37.0856 1003.21C48.9956 1028.05 70.7522 1044.87 94.2193 1053.83C185.644 1088.72 286.717 1088.72 378.142 1053.83C401.606 1044.87 423.373 1028.05 435.273 1003.19C458.813 954.015 472.222 896.266 472.222 833.496C472.222 802.429 468.404 772.648 462.721 743.845L462.517 742.935C456.133 710.721 447.421 679.47 438.958 649.109L438.957 649.105C434.879 634.477 430.859 620.055 427.184 605.832C417.56 568.581 418.211 528.938 421.56 487.155C423.012 469.049 423.838 450.906 423.838 432.882C423.838 384.604 405.409 340.837 375.197 307.926C372.924 305.45 373.09 301.573 375.535 299.266C401.481 274.779 425.046 233.076 438.497 182.875C462.173 94.5141 445.551 13.2864 401.371 1.44827C357.19 -10.3899 302.181 51.6443 278.505 140.006C270.358 170.409 266.983 199.968 267.859 226.146C296.741 230.336 323.741 240.157 347.561 254.453C353.031 257.736 354.834 264.882 351.589 270.414C348.343 275.947 341.277 277.77 335.807 274.487C316.06 262.636 293.812 254.204 269.976 250.065L270.057 250.107C259.044 248.124 247.698 247.089 236.111 247.089C224.331 247.089 212.801 248.159 201.617 250.207L201.702 250.161C178.074 254.335 156.018 262.727 136.423 274.487C130.953 277.77 123.887 275.947 120.641 270.414C117.396 264.882 119.199 257.736 124.669 254.453C148.341 240.246 175.152 230.458 203.831 226.225ZM426.488 729.406C431.368 725.752 433.631 719.552 432.172 713.633C427.488 694.629 422.234 675.746 416.97 656.827L416.969 656.825C412.793 641.814 408.609 626.779 404.698 611.641C394.068 570.495 395.015 527.66 398.411 485.299C399.82 467.719 400.614 450.201 400.614 432.882C400.614 342.781 327.072 270.313 236.111 270.313C145.15 270.313 71.6072 342.781 71.6072 432.882C71.6072 450.201 72.4018 467.719 73.811 485.299C77.2066 527.66 78.1533 570.495 67.5233 611.641C63.6128 626.778 59.4299 641.811 55.2535 656.821L55.2526 656.825L55.2523 656.826C49.9881 675.745 44.7343 694.628 40.0495 713.632C38.5902 719.552 40.8537 725.752 45.7342 729.406L45.7813 729.437C45.9556 729.553 46.3488 729.809 46.9708 730.186C48.2143 730.94 50.3757 732.18 53.5331 733.753C59.8437 736.897 70.1648 741.385 85.1275 745.976C115.037 755.152 163.677 764.792 236.111 764.792C308.545 764.792 357.185 755.152 387.095 745.976C402.057 741.385 412.378 736.897 418.689 733.753C421.846 732.18 424.008 730.94 425.251 730.186C425.873 729.809 426.267 729.553 426.441 729.437L426.488 729.406Z" fill="#F1E7FF"/>
</svg>
